<svg width="210" height="139" viewBox="0 0 210 139" fill="none" xmlns="http://www.w3.org/2000/svg">
<path fill-rule="evenodd" clip-rule="evenodd" d="M38.7911 11.08C31.4311 11.08 25.6391 13.544 21.4151 18.472C17.1911 23.4 15.0791 30.152 15.0791 38.728C15.0791 47.24 17.0311 53.992 20.9351 58.984C24.9031 63.912 30.8231 66.376 38.6951 66.376C41.7031 66.376 44.5511 66.12 47.2391 65.608C49.9271 65.096 52.5511 64.456 55.1111 63.688V71.176C52.5511 72.136 49.8951 72.84 47.1431 73.288C44.4551 73.736 41.2231 73.96 37.4471 73.96C30.4711 73.96 24.6471 72.52 19.9751 69.64C15.3031 66.76 11.7831 62.664 9.41513 57.352C7.11113 52.04 5.95913 45.8 5.95913 38.632C5.95913 31.72 7.20713 25.64 9.70313 20.392C12.2631 15.08 16.0071 10.952 20.9351 8.00798C25.8631 4.99998 31.8471 3.49598 38.8871 3.49598C46.1191 3.49598 52.4231 4.83998 57.7991 7.52798L54.3431 14.824C52.2311 13.864 49.8631 13 47.2391 12.232C44.6791 11.464 41.8631 11.08 38.7911 11.08ZM86.9674 73H78.5194V0.039978H86.9674V73ZM132.741 20.584C137.157 20.584 140.933 21.544 144.069 23.464C147.269 25.384 149.701 28.104 151.365 31.624C153.093 35.08 153.957 39.144 153.957 43.816V48.904H118.725C118.853 54.728 120.325 59.176 123.141 62.248C126.021 65.256 130.021 66.76 135.141 66.76C138.405 66.76 141.285 66.472 143.781 65.896C146.341 65.256 148.965 64.36 151.653 63.208V70.6C149.029 71.752 146.437 72.584 143.877 73.096C141.317 73.672 138.277 73.96 134.757 73.96C129.893 73.96 125.573 72.968 121.797 70.984C118.085 69 115.173 66.056 113.061 62.152C111.013 58.184 109.989 53.352 109.989 47.656C109.989 42.024 110.917 37.192 112.773 33.16C114.693 29.128 117.349 26.024 120.741 23.848C124.197 21.672 128.197 20.584 132.741 20.584ZM132.645 27.496C128.613 27.496 125.413 28.808 123.045 31.432C120.741 33.992 119.365 37.576 118.917 42.184H145.125C145.061 37.832 144.037 34.312 142.053 31.624C140.069 28.872 136.933 27.496 132.645 27.496ZM190.74 83C189.535 88.7056 184.289 93 178 93C171.711 93 166.465 88.7056 165.26 83L145 83V111H139V139H138V111H132V83H124V111H118V139H117V111H111V83H103V111H97V139H96V111H90V83H78V139H77V83H65V111H59V139H58V111H52V83H44V111H38V139H37V111H31V83L0 83V77H165.516C167.091 71.8 172.084 68 178 68C179.568 68 181.072 68.2671 182.464 68.7564V35.032H173.44V31.096L182.464 28.216V25.24C182.464 18.584 183.936 13.816 186.88 10.936C189.824 7.99195 193.92 6.51995 199.168 6.51995C201.216 6.51995 203.072 6.71195 204.736 7.09595C206.464 7.41596 207.936 7.79996 209.152 8.24796L206.944 14.872C205.92 14.552 204.736 14.232 203.392 13.912C202.048 13.592 200.672 13.432 199.264 13.432C196.448 13.432 194.336 14.392 192.928 16.312C191.584 18.168 190.912 21.112 190.912 25.144V28.504H203.872V35.032H190.912V77H205V83H190.74Z" fill="#385684"/>
<path fill-rule="evenodd" clip-rule="evenodd" d="M38.7911 11.08C31.4311 11.08 25.6391 13.544 21.4151 18.472C17.1911 23.4 15.0791 30.152 15.0791 38.728C15.0791 47.24 17.0311 53.992 20.9351 58.984C24.9031 63.912 30.8231 66.376 38.6951 66.376C41.7031 66.376 44.5511 66.12 47.2391 65.608C49.9271 65.096 52.5511 64.456 55.1111 63.688V71.176C52.5511 72.136 49.8951 72.84 47.1431 73.288C44.4551 73.736 41.2231 73.96 37.4471 73.96C30.4711 73.96 24.6471 72.52 19.9751 69.64C15.3031 66.76 11.7831 62.664 9.41513 57.352C7.11113 52.04 5.95913 45.8 5.95913 38.632C5.95913 31.72 7.20713 25.64 9.70313 20.392C12.2631 15.08 16.0071 10.952 20.9351 8.00798C25.8631 4.99998 31.8471 3.49598 38.8871 3.49598C46.1191 3.49598 52.4231 4.83998 57.7991 7.52798L54.3431 14.824C52.2311 13.864 49.8631 13 47.2391 12.232C44.6791 11.464 41.8631 11.08 38.7911 11.08ZM86.9674 73H78.5194V0.039978H86.9674V73ZM132.741 20.584C137.157 20.584 140.933 21.544 144.069 23.464C147.269 25.384 149.701 28.104 151.365 31.624C153.093 35.08 153.957 39.144 153.957 43.816V48.904H118.725C118.853 54.728 120.325 59.176 123.141 62.248C126.021 65.256 130.021 66.76 135.141 66.76C138.405 66.76 141.285 66.472 143.781 65.896C146.341 65.256 148.965 64.36 151.653 63.208V70.6C149.029 71.752 146.437 72.584 143.877 73.096C141.317 73.672 138.277 73.96 134.757 73.96C129.893 73.96 125.573 72.968 121.797 70.984C118.085 69 115.173 66.056 113.061 62.152C111.013 58.184 109.989 53.352 109.989 47.656C109.989 42.024 110.917 37.192 112.773 33.16C114.693 29.128 117.349 26.024 120.741 23.848C124.197 21.672 128.197 20.584 132.741 20.584ZM132.645 27.496C128.613 27.496 125.413 28.808 123.045 31.432C120.741 33.992 119.365 37.576 118.917 42.184H145.125C145.061 37.832 144.037 34.312 142.053 31.624C140.069 28.872 136.933 27.496 132.645 27.496ZM190.74 83C189.535 88.7056 184.289 93 178 93C171.711 93 166.465 88.7056 165.26 83L145 83V111H139V139H138V111H132V83H124V111H118V139H117V111H111V83H103V111H97V139H96V111H90V83H78V139H77V83H65V111H59V139H58V111H52V83H44V111H38V139H37V111H31V83L0 83V77H165.516C167.091 71.8 172.084 68 178 68C179.568 68 181.072 68.2671 182.464 68.7564V35.032H173.44V31.096L182.464 28.216V25.24C182.464 18.584 183.936 13.816 186.88 10.936C189.824 7.99195 193.92 6.51995 199.168 6.51995C201.216 6.51995 203.072 6.71195 204.736 7.09595C206.464 7.41596 207.936 7.79996 209.152 8.24796L206.944 14.872C205.92 14.552 204.736 14.232 203.392 13.912C202.048 13.592 200.672 13.432 199.264 13.432C196.448 13.432 194.336 14.392 192.928 16.312C191.584 18.168 190.912 21.112 190.912 25.144V28.504H203.872V35.032H190.912V77H205V83H190.74Z" fill="url(#paint0_linear)"/>
<defs>
<linearGradient id="paint0_linear" x1="203.5" y1="18" x2="-15" y2="116" gradientUnits="userSpaceOnUse">
<stop offset="0.196053" stop-color="#418DFF"/>
<stop offset="1" stop-color="white" stop-opacity="0"/>
</linearGradient>
</defs>
</svg>
