<svg width="210" height="139" viewBox="0 0 210 139" fill="none" xmlns="http://www.w3.org/2000/svg">
<path fill-rule="evenodd" clip-rule="evenodd" d="M38.7911 11.04C31.4311 11.04 25.6391 13.504 21.4151 18.432C17.1911 23.36 15.0791 30.112 15.0791 38.688C15.0791 47.2 17.0311 53.952 20.9351 58.944C24.9031 63.872 30.8231 66.336 38.6951 66.336C41.7031 66.336 44.5511 66.08 47.2391 65.568C49.9271 65.056 52.5511 64.416 55.1111 63.648V71.136C52.5511 72.096 49.8951 72.8 47.1431 73.248C44.4551 73.696 41.2231 73.92 37.4471 73.92C30.4711 73.92 24.6471 72.48 19.9751 69.6C15.3031 66.72 11.7831 62.624 9.41513 57.312C7.11113 52 5.95913 45.76 5.95913 38.592C5.95913 31.68 7.20713 25.6 9.70313 20.352C12.2631 15.04 16.0071 10.912 20.9351 7.968C25.8631 4.96 31.8471 3.456 38.8871 3.456C46.1191 3.456 52.4231 4.8 57.7991 7.488L54.3431 14.784C52.2311 13.824 49.8631 12.96 47.2391 12.192C44.6791 11.424 41.8631 11.04 38.7911 11.04ZM86.9674 72.96H78.5194V0H86.9674V72.96ZM132.741 20.544C137.157 20.544 140.933 21.504 144.069 23.424C147.269 25.344 149.701 28.064 151.365 31.584C153.093 35.04 153.957 39.104 153.957 43.776V48.864H118.725C118.853 54.688 120.325 59.136 123.141 62.208C126.021 65.216 130.021 66.72 135.141 66.72C138.405 66.72 141.285 66.432 143.781 65.856C146.341 65.216 148.965 64.32 151.653 63.168V70.56C149.029 71.712 146.437 72.544 143.877 73.056C141.317 73.632 138.277 73.92 134.757 73.92C129.893 73.92 125.573 72.928 121.797 70.944C118.085 68.96 115.173 66.016 113.061 62.112C111.013 58.144 109.989 53.312 109.989 47.616C109.989 41.984 110.917 37.152 112.773 33.12C114.693 29.088 117.349 25.984 120.741 23.808C124.197 21.632 128.197 20.544 132.741 20.544ZM132.645 27.456C128.613 27.456 125.413 28.768 123.045 31.392C120.741 33.952 119.365 37.536 118.917 42.144H145.125C145.061 37.792 144.037 34.272 142.053 31.584C140.069 28.832 136.933 27.456 132.645 27.456ZM190.74 82.96C189.535 88.6656 184.289 92.96 178 92.96C171.711 92.96 166.465 88.6656 165.26 82.96L145 82.96V110.96H139V138.96H138V110.96H132V82.96H124V110.96H118V138.96H117V110.96H111V82.96H103V110.96H97V138.96H96V110.96H90V82.96H78V138.96H77V82.96H65V110.96H59V138.96H58V110.96H52V82.96H44V110.96H38V138.96H37V110.96H31V82.96L0 82.96V76.96H165.516C167.091 71.76 172.084 67.96 178 67.96C179.568 67.96 181.072 68.2271 182.464 68.7165V34.992H173.44V31.056L182.464 28.176V25.2C182.464 18.544 183.936 13.776 186.88 10.896C189.824 7.95198 193.92 6.47998 199.168 6.47998C201.216 6.47998 203.072 6.67198 204.736 7.05597C206.464 7.37598 207.936 7.75998 209.152 8.20798L206.944 14.832C205.92 14.512 204.736 14.192 203.392 13.872C202.048 13.552 200.672 13.392 199.264 13.392C196.448 13.392 194.336 14.352 192.928 16.272C191.584 18.128 190.912 21.072 190.912 25.104V28.464H203.872V34.992H190.912V76.96H205V82.96H190.74Z" fill="white"/>
</svg>
