<svg width="131" height="135" viewBox="0 0 131 135" fill="none" xmlns="http://www.w3.org/2000/svg">
<ellipse cx="65.5" cy="67.5" rx="65.5" ry="67.5" fill="#385684"/>
<ellipse cx="65.5" cy="67.5" rx="65.5" ry="67.5" fill="url(#paint0_linear)"/>
<path fill-rule="evenodd" clip-rule="evenodd" d="M65.872 48.512H52.912V90.52H67V96.52H52.7315C51.5109 102.206 46.2746 106.48 40 106.48C33.7254 106.48 28.4891 102.206 27.2686 96.52H15V90.52H27.5045C29.0652 85.2995 34.0687 81.48 40 81.48C41.5684 81.48 43.0719 81.7471 44.464 82.2365V48.512H35.44V44.576L44.464 41.696V38.72C44.464 32.064 45.936 27.296 48.88 24.416C51.824 21.472 55.92 20 61.168 20C63.216 20 65.072 20.192 66.736 20.576C68.464 20.896 69.936 21.28 71.152 21.728L68.944 28.352C67.92 28.032 66.736 27.712 65.392 27.392C64.048 27.072 62.672 26.912 61.264 26.912C58.448 26.912 56.336 27.872 54.928 29.792C53.584 31.648 52.912 34.592 52.912 38.624V41.984H65.872V48.512ZM70.9999 43.5199H83.9999V71.5199H78V99H76V71.5199H70.9999V43.5199ZM105 43.5199H91.9999V71.5199H98V99H100V71.5199H105V43.5199ZM118 44H116V99H118V44Z" fill="white"/>
<defs>
<linearGradient id="paint0_linear" x1="124" y1="16" x2="6.19272e-06" y2="117.5" gradientUnits="userSpaceOnUse">
<stop offset="0.00617463" stop-color="#3D8DFF"/>
<stop offset="1" stop-color="white" stop-opacity="0"/>
</linearGradient>
</defs>
</svg>
